<svg width="23" height="18" viewBox="0 0 23 18" fill="currentcolor" xmlns="http://www.w3.org/2000/svg">
<path d="M14.5228 17.4789C14.2865 17.4789 14.0502 17.3919 13.8637 17.2054C13.5031 16.8448 13.5031 16.2479 13.8637 15.8873L20.7526 8.99846L13.8637 2.10965C13.5031 1.74905 13.5031 1.15218 13.8637 0.791573C14.2243 0.430966 14.8212 0.430966 15.1818 0.791573L22.7297 8.33942C23.0903 8.70003 23.0903 9.2969 22.7297 9.6575L15.1818 17.2054C14.9953 17.3919 14.759 17.4789 14.5228 17.4789Z" fill="currentcolor"/>
<path d="M21.8602 9.93088H0.932604C0.42278 9.93088 0 9.5081 0 8.99828C0 8.48845 0.42278 8.06567 0.932604 8.06567H21.8602C22.3701 8.06567 22.7928 8.48845 22.7928 8.99828C22.7928 9.5081 22.3701 9.93088 21.8602 9.93088Z" fill="currentcolor"/>
</svg>
