<svg width="17" height="17" viewBox="0 0 17 17" fill="currentcolor" xmlns="http://www.w3.org/2000/svg">
<path d="M3.00327 3.81247L0.571289 1.38049L1.63195 0.319828L4.06393 2.75181H15.4952C15.9095 2.75181 16.2452 3.08759 16.2452 3.50181C16.2452 3.5748 16.2346 3.6474 16.2137 3.71731L14.4137 9.71735C14.3185 10.0345 14.0264 10.2518 13.6952 10.2518H4.50327V11.7518H12.7533V13.2518H3.75327C3.33905 13.2518 3.00327 12.916 3.00327 12.5018V3.81247ZM4.12827 16.2518C3.50695 16.2518 3.00327 15.7481 3.00327 15.1268C3.00327 14.5055 3.50695 14.0018 4.12827 14.0018C4.74959 14.0018 5.25327 14.5055 5.25327 15.1268C5.25327 15.7481 4.74959 16.2518 4.12827 16.2518ZM13.1283 16.2518C12.5069 16.2518 12.0033 15.7481 12.0033 15.1268C12.0033 14.5055 12.5069 14.0018 13.1283 14.0018C13.7496 14.0018 14.2533 14.5055 14.2533 15.1268C14.2533 15.7481 13.7496 16.2518 13.1283 16.2518Z" fill="currentcolor"/>
</svg>
